<mxfile host="app.diagrams.net" modified="2023-12-30T10:00:05.297Z" agent="Mozilla/5.0 (Windows NT 10.0; Win64; x64) AppleWebKit/537.36 (KHTML, like Gecko) Chrome/120.0.0.0 Safari/537.36" etag="xg4lQZiPE2yw--wepsFZ" version="22.1.16" type="github">
  <diagram name="Page-1" id="OzgFC7zWPZVItZRLBeC2">
    <mxGraphModel dx="880" dy="460" grid="1" gridSize="10" guides="1" tooltips="1" connect="1" arrows="1" fold="1" page="1" pageScale="1" pageWidth="850" pageHeight="1100" math="0" shadow="0">
      <root>
        <mxCell id="0" />
        <mxCell id="1" parent="0" />
        <mxCell id="ky2wYxaWMiFnH0lhiRk4-12" style="edgeStyle=orthogonalEdgeStyle;rounded=0;orthogonalLoop=1;jettySize=auto;html=1;exitX=0.5;exitY=1;exitDx=0;exitDy=0;exitPerimeter=0;entryX=0.5;entryY=0;entryDx=0;entryDy=0;" edge="1" parent="1" source="ky2wYxaWMiFnH0lhiRk4-4" target="ky2wYxaWMiFnH0lhiRk4-10">
          <mxGeometry relative="1" as="geometry" />
        </mxCell>
        <mxCell id="ky2wYxaWMiFnH0lhiRk4-4" value="" style="verticalLabelPosition=bottom;html=1;verticalAlign=top;align=center;strokeColor=none;fillColor=#00BEF2;shape=mxgraph.azure.cloud_services_configuration_file;pointerEvents=1;" vertex="1" parent="1">
          <mxGeometry x="327" y="80" width="47.5" height="50" as="geometry" />
        </mxCell>
        <mxCell id="ky2wYxaWMiFnH0lhiRk4-13" style="edgeStyle=orthogonalEdgeStyle;rounded=0;orthogonalLoop=1;jettySize=auto;html=1;exitX=0.5;exitY=1;exitDx=0;exitDy=0;exitPerimeter=0;entryX=0.5;entryY=0;entryDx=0;entryDy=0;" edge="1" parent="1" source="ky2wYxaWMiFnH0lhiRk4-5" target="ky2wYxaWMiFnH0lhiRk4-11">
          <mxGeometry relative="1" as="geometry" />
        </mxCell>
        <mxCell id="ky2wYxaWMiFnH0lhiRk4-5" value="" style="verticalLabelPosition=bottom;html=1;verticalAlign=top;align=center;strokeColor=none;fillColor=#00BEF2;shape=mxgraph.azure.cloud_services_configuration_file;pointerEvents=1;" vertex="1" parent="1">
          <mxGeometry x="510" y="80" width="47.5" height="50" as="geometry" />
        </mxCell>
        <mxCell id="ky2wYxaWMiFnH0lhiRk4-6" value="Language 1 Source Code" style="text;html=1;strokeColor=none;fillColor=none;align=center;verticalAlign=middle;whiteSpace=wrap;rounded=0;" vertex="1" parent="1">
          <mxGeometry x="270" y="50" width="160" height="30" as="geometry" />
        </mxCell>
        <mxCell id="ky2wYxaWMiFnH0lhiRk4-7" value="Language 2 Source Code" style="text;html=1;strokeColor=none;fillColor=none;align=center;verticalAlign=middle;whiteSpace=wrap;rounded=0;" vertex="1" parent="1">
          <mxGeometry x="449.5" y="50" width="170" height="30" as="geometry" />
        </mxCell>
        <mxCell id="ky2wYxaWMiFnH0lhiRk4-17" style="edgeStyle=orthogonalEdgeStyle;rounded=0;orthogonalLoop=1;jettySize=auto;html=1;exitX=0.5;exitY=1;exitDx=0;exitDy=0;exitPerimeter=0;entryX=0.75;entryY=0;entryDx=0;entryDy=0;" edge="1" parent="1" source="ky2wYxaWMiFnH0lhiRk4-8" target="ky2wYxaWMiFnH0lhiRk4-14">
          <mxGeometry relative="1" as="geometry" />
        </mxCell>
        <mxCell id="ky2wYxaWMiFnH0lhiRk4-8" value="" style="sketch=0;aspect=fixed;pointerEvents=1;shadow=0;dashed=0;html=1;strokeColor=none;labelPosition=center;verticalLabelPosition=bottom;verticalAlign=top;align=center;fillColor=#00188D;shape=mxgraph.mscae.enterprise.code_file" vertex="1" parent="1">
          <mxGeometry x="510" y="200" width="49" height="50" as="geometry" />
        </mxCell>
        <mxCell id="ky2wYxaWMiFnH0lhiRk4-16" style="edgeStyle=orthogonalEdgeStyle;rounded=0;orthogonalLoop=1;jettySize=auto;html=1;exitX=0.5;exitY=1;exitDx=0;exitDy=0;exitPerimeter=0;entryX=0.25;entryY=0;entryDx=0;entryDy=0;" edge="1" parent="1" source="ky2wYxaWMiFnH0lhiRk4-9" target="ky2wYxaWMiFnH0lhiRk4-14">
          <mxGeometry relative="1" as="geometry" />
        </mxCell>
        <mxCell id="ky2wYxaWMiFnH0lhiRk4-9" value="" style="sketch=0;aspect=fixed;pointerEvents=1;shadow=0;dashed=0;html=1;strokeColor=none;labelPosition=center;verticalLabelPosition=bottom;verticalAlign=top;align=center;fillColor=#00188D;shape=mxgraph.mscae.enterprise.code_file" vertex="1" parent="1">
          <mxGeometry x="326.25" y="200" width="49" height="50" as="geometry" />
        </mxCell>
        <mxCell id="ky2wYxaWMiFnH0lhiRk4-10" value="Compiler Front-End for Language 1" style="text;html=1;strokeColor=none;fillColor=none;align=center;verticalAlign=middle;whiteSpace=wrap;rounded=0;" vertex="1" parent="1">
          <mxGeometry x="270.75" y="160" width="160" height="30" as="geometry" />
        </mxCell>
        <mxCell id="ky2wYxaWMiFnH0lhiRk4-11" value="Compiler Front-End for Language 2" style="text;html=1;strokeColor=none;fillColor=none;align=center;verticalAlign=middle;whiteSpace=wrap;rounded=0;" vertex="1" parent="1">
          <mxGeometry x="454.5" y="160" width="160" height="30" as="geometry" />
        </mxCell>
        <mxCell id="ky2wYxaWMiFnH0lhiRk4-23" style="edgeStyle=orthogonalEdgeStyle;rounded=0;orthogonalLoop=1;jettySize=auto;html=1;exitX=0.25;exitY=1;exitDx=0;exitDy=0;entryX=0.5;entryY=0;entryDx=0;entryDy=0;" edge="1" parent="1" source="ky2wYxaWMiFnH0lhiRk4-14" target="ky2wYxaWMiFnH0lhiRk4-21">
          <mxGeometry relative="1" as="geometry" />
        </mxCell>
        <mxCell id="ky2wYxaWMiFnH0lhiRk4-24" style="edgeStyle=orthogonalEdgeStyle;rounded=0;orthogonalLoop=1;jettySize=auto;html=1;exitX=0.75;exitY=1;exitDx=0;exitDy=0;entryX=0.5;entryY=0;entryDx=0;entryDy=0;" edge="1" parent="1" source="ky2wYxaWMiFnH0lhiRk4-14" target="ky2wYxaWMiFnH0lhiRk4-22">
          <mxGeometry relative="1" as="geometry" />
        </mxCell>
        <mxCell id="ky2wYxaWMiFnH0lhiRk4-14" value="" style="rounded=1;whiteSpace=wrap;html=1;" vertex="1" parent="1">
          <mxGeometry x="330" y="310" width="230" height="60" as="geometry" />
        </mxCell>
        <mxCell id="ky2wYxaWMiFnH0lhiRk4-15" value="Intermediate Code Optimizer" style="text;html=1;strokeColor=none;fillColor=none;align=center;verticalAlign=middle;whiteSpace=wrap;rounded=0;" vertex="1" parent="1">
          <mxGeometry x="350" y="325" width="190" height="30" as="geometry" />
        </mxCell>
        <mxCell id="ky2wYxaWMiFnH0lhiRk4-18" value="Non- Optimized Intermediate Code" style="text;html=1;strokeColor=none;fillColor=none;align=center;verticalAlign=middle;whiteSpace=wrap;rounded=0;" vertex="1" parent="1">
          <mxGeometry x="370" y="250" width="150" height="30" as="geometry" />
        </mxCell>
        <mxCell id="ky2wYxaWMiFnH0lhiRk4-21" value="" style="rounded=0;whiteSpace=wrap;html=1;" vertex="1" parent="1">
          <mxGeometry x="290" y="420" width="120" height="60" as="geometry" />
        </mxCell>
        <mxCell id="ky2wYxaWMiFnH0lhiRk4-22" value="" style="rounded=0;whiteSpace=wrap;html=1;" vertex="1" parent="1">
          <mxGeometry x="480" y="420" width="120" height="60" as="geometry" />
        </mxCell>
        <mxCell id="ky2wYxaWMiFnH0lhiRk4-25" value="Target 1 Code Generator" style="text;html=1;strokeColor=none;fillColor=none;align=center;verticalAlign=middle;whiteSpace=wrap;rounded=0;" vertex="1" parent="1">
          <mxGeometry x="300" y="435" width="100" height="30" as="geometry" />
        </mxCell>
        <mxCell id="ky2wYxaWMiFnH0lhiRk4-26" value="Target 2 Code Generator" style="text;html=1;strokeColor=none;fillColor=none;align=center;verticalAlign=middle;whiteSpace=wrap;rounded=0;" vertex="1" parent="1">
          <mxGeometry x="490" y="435" width="100" height="30" as="geometry" />
        </mxCell>
        <mxCell id="ky2wYxaWMiFnH0lhiRk4-27" value="" style="sketch=0;aspect=fixed;pointerEvents=1;shadow=0;dashed=0;html=1;strokeColor=none;labelPosition=center;verticalLabelPosition=bottom;verticalAlign=top;align=center;shape=mxgraph.azure.rdp_remoting_file;fillColor=#0078D7;" vertex="1" parent="1">
          <mxGeometry x="516" y="570" width="48" height="50" as="geometry" />
        </mxCell>
        <mxCell id="ky2wYxaWMiFnH0lhiRk4-28" value="" style="sketch=0;aspect=fixed;pointerEvents=1;shadow=0;dashed=0;html=1;strokeColor=none;labelPosition=center;verticalLabelPosition=bottom;verticalAlign=top;align=center;shape=mxgraph.azure.rdp_remoting_file;fillColor=#0078D7;" vertex="1" parent="1">
          <mxGeometry x="326" y="570" width="48" height="50" as="geometry" />
        </mxCell>
        <mxCell id="ky2wYxaWMiFnH0lhiRk4-29" style="edgeStyle=orthogonalEdgeStyle;rounded=0;orthogonalLoop=1;jettySize=auto;html=1;entryX=0.5;entryY=0;entryDx=0;entryDy=0;entryPerimeter=0;" edge="1" parent="1" source="ky2wYxaWMiFnH0lhiRk4-21" target="ky2wYxaWMiFnH0lhiRk4-28">
          <mxGeometry relative="1" as="geometry" />
        </mxCell>
        <mxCell id="ky2wYxaWMiFnH0lhiRk4-30" style="edgeStyle=orthogonalEdgeStyle;rounded=0;orthogonalLoop=1;jettySize=auto;html=1;exitX=0.5;exitY=1;exitDx=0;exitDy=0;entryX=0.5;entryY=0;entryDx=0;entryDy=0;entryPerimeter=0;" edge="1" parent="1" source="ky2wYxaWMiFnH0lhiRk4-22" target="ky2wYxaWMiFnH0lhiRk4-27">
          <mxGeometry relative="1" as="geometry" />
        </mxCell>
        <mxCell id="ky2wYxaWMiFnH0lhiRk4-31" value="Target 1 Machine Code" style="text;html=1;strokeColor=none;fillColor=none;align=center;verticalAlign=middle;whiteSpace=wrap;rounded=0;" vertex="1" parent="1">
          <mxGeometry x="290" y="510" width="130" height="30" as="geometry" />
        </mxCell>
        <mxCell id="ky2wYxaWMiFnH0lhiRk4-32" value="Target 2 Machine Code" style="text;html=1;strokeColor=none;fillColor=none;align=center;verticalAlign=middle;whiteSpace=wrap;rounded=0;" vertex="1" parent="1">
          <mxGeometry x="475" y="510" width="130" height="30" as="geometry" />
        </mxCell>
      </root>
    </mxGraphModel>
  </diagram>
</mxfile>
